<svg xmlns="http://www.w3.org/2000/svg" viewBox="0 0 700 248" width="700" height="248" role="img">
<rect x="0" y="0" width="700" height="248" fill="#0c101c"/>
<text x="24" y="32" font-family="ui-monospace,SFMono-Regular,Menlo,Consolas,monospace" font-size="12" font-weight="700" fill="#e8ecf6" text-anchor="start">Content-Length\t: 5</text>
<rect x="24" y="44" width="652" height="1.2" rx="0" fill="#2c3448"/>
<text x="24" y="96" font-family="ui-monospace,SFMono-Regular,Menlo,Consolas,monospace" font-size="11" font-weight="700" fill="#ff8a62" text-anchor="start">proxy   trims the tab</text>
<rect x="280" y="76" width="160" height="30" rx="3" fill="#39201a"/>
<rect x="280" y="76" width="160" height="1.2" rx="0" fill="#ff8a62"/>
<rect x="280" y="104.8" width="160" height="1.2" rx="0" fill="#ff8a62"/>
<rect x="280" y="76" width="1.2" height="30" rx="0" fill="#ff8a62"/>
<rect x="438.8" y="76" width="1.2" height="30" rx="0" fill="#ff8a62"/>
<text x="360" y="95" font-family="ui-monospace,SFMono-Regular,Menlo,Consolas,monospace" font-size="10" font-weight="700" fill="#ff8a62" text-anchor="middle">header seen</text>
<rect x="444" y="90.4" width="22" height="1.2" rx="0" fill="#2c3448"/>
<path d="M466 88.2 L470 91 L466 93.8 z" fill="#2c3448"/>
<rect x="474" y="76" width="200" height="1.2" rx="0" fill="#2c3448"/>
<rect x="474" y="104.8" width="200" height="1.2" rx="0" fill="#2c3448"/>
<rect x="474" y="76" width="1.2" height="30" rx="0" fill="#2c3448"/>
<rect x="672.8" y="76" width="1.2" height="30" rx="0" fill="#2c3448"/>
<text x="574" y="95" font-family="ui-monospace,SFMono-Regular,Menlo,Consolas,monospace" font-size="10" font-weight="400" fill="#8b95ab" text-anchor="middle">5 bytes are body</text>
<text x="24" y="158" font-family="ui-monospace,SFMono-Regular,Menlo,Consolas,monospace" font-size="11" font-weight="700" fill="#93a4ff" text-anchor="start">server  rejects the name</text>
<rect x="280" y="138" width="160" height="30" rx="3" fill="#1e2547"/>
<rect x="280" y="138" width="160" height="1.2" rx="0" fill="#93a4ff"/>
<rect x="280" y="166.8" width="160" height="1.2" rx="0" fill="#93a4ff"/>
<rect x="280" y="138" width="1.2" height="30" rx="0" fill="#93a4ff"/>
<rect x="438.8" y="138" width="1.2" height="30" rx="0" fill="#93a4ff"/>
<text x="360" y="157" font-family="ui-monospace,SFMono-Regular,Menlo,Consolas,monospace" font-size="10" font-weight="700" fill="#93a4ff" text-anchor="middle">header not seen</text>
<rect x="444" y="152.4" width="22" height="1.2" rx="0" fill="#2c3448"/>
<path d="M466 150.2 L470 153 L466 155.8 z" fill="#2c3448"/>
<rect x="474" y="138" width="200" height="1.2" rx="0" fill="#2c3448"/>
<rect x="474" y="166.8" width="200" height="1.2" rx="0" fill="#2c3448"/>
<rect x="474" y="138" width="1.2" height="30" rx="0" fill="#2c3448"/>
<rect x="672.8" y="138" width="1.2" height="30" rx="0" fill="#2c3448"/>
<text x="574" y="157" font-family="ui-monospace,SFMono-Regular,Menlo,Consolas,monospace" font-size="10" font-weight="400" fill="#8b95ab" text-anchor="middle">0 bytes are body</text>
<rect x="24" y="208" width="652" height="1.2" rx="0" fill="#2c3448"/>
<text x="24" y="230" font-family="ui-monospace,SFMono-Regular,Menlo,Consolas,monospace" font-size="10.5" font-weight="400" fill="#8b95ab" text-anchor="start">the disagreement is the attack: the next request begins inside this one</text>
</svg>
